<svg xmlns="http://www.w3.org/2000/svg" width="42.79" height="30.771" viewBox="0 0 42.79 30.771">
  <path id="Trazado_1235" data-name="Trazado 1235" d="M1411.293,1623.135a18.1,18.1,0,0,0-10.3-3.85l-.516.586c6.036,1.846,8.943,4.483,9.118,4.647a29.953,29.953,0,0,0-11.022-3.51,31.034,31.034,0,0,0-7.4.07,3.815,3.815,0,0,0-.621.077,27.529,27.529,0,0,0-8.315,2.308c-1.272.58-2.057,1.008-2.151,1.055.182-.176,3.235-2.947,9.622-4.793l-.363-.44a18.1,18.1,0,0,0-10.3,3.85,49.043,49.043,0,0,0-5.274,21.354s3.076,5.31,11.175,5.567c0,0,1.354-1.646,2.461-3.041A11.465,11.465,0,0,1,1381,1642.7c.059.041.416.275,1.02.615a.532.532,0,0,0,.146.112c.106.07.217.105.329.181a21.368,21.368,0,0,0,2.672,1.243,31.169,31.169,0,0,0,5.385,1.576,25.544,25.544,0,0,0,9.488.035,24.093,24.093,0,0,0,5.315-1.57,21.625,21.625,0,0,0,4.207-2.157,11.634,11.634,0,0,1-6.622,4.354c1.1,1.389,2.415,2.965,2.415,2.965,8.092-.257,11.21-5.567,11.21-5.567A49.043,49.043,0,0,0,1411.293,1623.135Zm-22.972,17.95a4.082,4.082,0,0,1,0-8.134,4.081,4.081,0,0,1,0,8.134Zm13.373,0a4.081,4.081,0,1,1,3.739-4.067A3.932,3.932,0,0,1,1401.694,1641.085Z" transform="translate(-1373.777 -1619.285)" fill="#f7931e"/>
</svg>
