<svg xmlns="http://www.w3.org/2000/svg" width="42.791" height="30.773" viewBox="0 0 42.791 30.773">
  <path id="Trazado_60" data-name="Trazado 60" d="M373.856,6420.4a18.1,18.1,0,0,0-10.3-3.85l-.515.586c6.036,1.846,8.942,4.483,9.118,4.647a29.976,29.976,0,0,0-11.023-3.51,31.028,31.028,0,0,0-7.4.071,3.948,3.948,0,0,0-.621.076,27.523,27.523,0,0,0-8.316,2.309c-1.271.58-2.057,1.007-2.15,1.054.181-.175,3.234-2.947,9.622-4.793l-.363-.44a18.1,18.1,0,0,0-10.3,3.85,49.045,49.045,0,0,0-5.274,21.355s3.077,5.309,11.175,5.567c0,0,1.354-1.647,2.462-3.042a11.451,11.451,0,0,1-6.411-4.313c.058.041.416.276,1.019.616a.574.574,0,0,0,.147.111c.105.07.217.1.328.182a21.543,21.543,0,0,0,2.672,1.242,31.143,31.143,0,0,0,5.386,1.576,25.531,25.531,0,0,0,9.487.036,24,24,0,0,0,5.315-1.571,21.652,21.652,0,0,0,4.208-2.156,11.643,11.643,0,0,1-6.622,4.353c1.1,1.389,2.414,2.966,2.414,2.966,8.093-.258,11.211-5.567,11.211-5.567A49.045,49.045,0,0,0,373.856,6420.4Zm-22.972,17.95a4.082,4.082,0,0,1,0-8.134,4.082,4.082,0,0,1,0,8.134Zm13.373,0a4.082,4.082,0,1,1,3.739-4.067A3.931,3.931,0,0,1,364.257,6438.352Z" transform="translate(-336.339 -6416.551)" fill="#fff"/>
</svg>
