<svg xmlns="http://www.w3.org/2000/svg" width="22.822" height="22.822" viewBox="0 0 22.822 22.822">
  <path id="Trazado_1273" data-name="Trazado 1273" d="M22.658,9.053V2.25m0,0h-6.8m6.8,0-9.07,9.07m-3.4-6.8H7.692c-1.9,0-2.857,0-3.585.371A3.4,3.4,0,0,0,2.621,6.375C2.25,7.1,2.25,8.055,2.25,9.96v7.256c0,1.9,0,2.857.371,3.585a3.4,3.4,0,0,0,1.486,1.486c.728.371,1.68.371,3.585.371h7.256c1.9,0,2.857,0,3.585-.371A3.4,3.4,0,0,0,20.02,20.8c.371-.728.371-1.68.371-3.585V14.721" transform="translate(-1.25 -0.836)" fill="none" stroke="#fff" stroke-linecap="round" stroke-linejoin="round" stroke-width="2"/>
</svg>
