<svg xmlns="http://www.w3.org/2000/svg" width="23.896" height="23.896" viewBox="0 0 23.896 23.896">
  <path id="ic_center_focus_weak_24px" d="M5.655,18.931H3v5.31A2.663,2.663,0,0,0,5.655,26.9h5.31V24.241H5.655Zm0-13.276h5.31V3H5.655A2.663,2.663,0,0,0,3,5.655v5.31H5.655ZM24.241,3h-5.31V5.655h5.31v5.31H26.9V5.655A2.663,2.663,0,0,0,24.241,3Zm0,21.241h-5.31V26.9h5.31A2.663,2.663,0,0,0,26.9,24.241v-5.31H24.241Zm-9.293-14.6a5.31,5.31,0,1,0,5.31,5.31A5.309,5.309,0,0,0,14.948,9.638Zm0,7.965A2.655,2.655,0,1,1,17.6,14.948,2.663,2.663,0,0,1,14.948,17.6Z" transform="translate(-3 -3)" fill="#fff"/>
</svg>
