<svg xmlns="http://www.w3.org/2000/svg" width="32.902" height="32.903" viewBox="0 0 32.902 32.903">
  <g id="instagram" transform="translate(-1133.149 -1618.225)">
    <path id="Trazado_3" data-name="Trazado 3" d="M1149.6,1621.177a50.334,50.334,0,0,1,6.567.183,8.466,8.466,0,0,1,3.1.548,6.405,6.405,0,0,1,3.1,3.1,8.463,8.463,0,0,1,.548,3.1c0,1.641.183,2.189.183,6.566a50.33,50.33,0,0,1-.183,6.567,8.463,8.463,0,0,1-.548,3.1,6.405,6.405,0,0,1-3.1,3.1,8.466,8.466,0,0,1-3.1.548c-1.642,0-2.19.182-6.567.182a50.163,50.163,0,0,1-6.567-.182,8.463,8.463,0,0,1-3.1-.548,6.411,6.411,0,0,1-3.1-3.1,8.459,8.459,0,0,1-.547-3.1c0-1.641-.183-2.189-.183-6.567a50.319,50.319,0,0,1,.183-6.566,8.459,8.459,0,0,1,.547-3.1,6.556,6.556,0,0,1,1.277-1.825,3.077,3.077,0,0,1,1.824-1.276,8.463,8.463,0,0,1,3.1-.548,50.334,50.334,0,0,1,6.567-.183m0-2.918a53.908,53.908,0,0,0-6.75.183,11.29,11.29,0,0,0-4.012.728,7.665,7.665,0,0,0-4.744,4.745,8.315,8.315,0,0,0-.729,4.012,125.24,125.24,0,0,0,0,13.5,11.281,11.281,0,0,0,.731,4.014,7.654,7.654,0,0,0,4.742,4.742,11.26,11.26,0,0,0,4.014.731,125.2,125.2,0,0,0,13.5,0,11.256,11.256,0,0,0,4.014-.731,7.652,7.652,0,0,0,4.743-4.742,11.278,11.278,0,0,0,.731-4.014c0-1.822.18-2.37.18-6.748a53.9,53.9,0,0,0-.183-6.749,11.256,11.256,0,0,0-.73-4.014,7.657,7.657,0,0,0-4.743-4.743,11.282,11.282,0,0,0-4.012-.728,53.892,53.892,0,0,0-6.749-.183m0,8.026a8.255,8.255,0,0,0-8.391,8.118q0,.137,0,.273a8.391,8.391,0,1,0,8.391-8.391h0m0,13.865a5.376,5.376,0,0,1-5.473-5.275c0-.066,0-.132,0-.2a5.375,5.375,0,0,1,5.274-5.473h.2a5.375,5.375,0,0,1,5.473,5.275q0,.1,0,.2a5.375,5.375,0,0,1-5.274,5.474h-.2m8.756-16.235a2.007,2.007,0,1,0,2.007,2.007h0a2.022,2.022,0,0,0-2.007-2.007" fill="#f7931e" fill-rule="evenodd"/>
  </g>
</svg>
