<svg xmlns="http://www.w3.org/2000/svg" width="32.903" height="32.903" viewBox="0 0 32.903 32.903">
  <g id="instagram" transform="translate(-95.711 -6415.492)">
    <path id="Trazado_3" data-name="Trazado 3" d="M112.162,6418.445a50.479,50.479,0,0,1,6.567.182,8.458,8.458,0,0,1,3.1.548,6.414,6.414,0,0,1,3.1,3.1,8.463,8.463,0,0,1,.548,3.1c0,1.642.183,2.189.183,6.567a50.347,50.347,0,0,1-.183,6.567,8.458,8.458,0,0,1-.548,3.1,6.406,6.406,0,0,1-3.1,3.1,8.458,8.458,0,0,1-3.1.548c-1.641,0-2.189.183-6.567.183a50.3,50.3,0,0,1-6.566-.183,8.458,8.458,0,0,1-3.1-.548,6.406,6.406,0,0,1-3.1-3.1,8.458,8.458,0,0,1-.548-3.1c0-1.642-.183-2.19-.183-6.567a50.33,50.33,0,0,1,.183-6.567,8.463,8.463,0,0,1,.548-3.1,6.56,6.56,0,0,1,1.276-1.824,3.079,3.079,0,0,1,1.825-1.277,8.458,8.458,0,0,1,3.1-.548,50.469,50.469,0,0,1,6.566-.182m0-2.918a53.688,53.688,0,0,0-6.749.182,11.271,11.271,0,0,0-4.012.729,7.666,7.666,0,0,0-4.745,4.744,8.313,8.313,0,0,0-.728,4.012,124.562,124.562,0,0,0,0,13.5,11.255,11.255,0,0,0,.731,4.014,7.66,7.66,0,0,0,4.742,4.743,11.261,11.261,0,0,0,4.014.73,53.933,53.933,0,0,0,6.747.181,53.977,53.977,0,0,0,6.75-.183,11.261,11.261,0,0,0,4.014-.73,7.656,7.656,0,0,0,4.743-4.743,11.28,11.28,0,0,0,.73-4.014c0-1.822.181-2.37.181-6.747a53.929,53.929,0,0,0-.183-6.75,11.26,11.26,0,0,0-.731-4.014,7.655,7.655,0,0,0-4.742-4.742,11.271,11.271,0,0,0-4.012-.729,53.7,53.7,0,0,0-6.75-.182m0,8.025a8.258,8.258,0,0,0-8.391,8.119c0,.091,0,.182,0,.273a8.391,8.391,0,1,0,8.391-8.392h0m0,13.865a5.375,5.375,0,0,1-5.473-5.274q0-.1,0-.2a5.375,5.375,0,0,1,5.275-5.473q.1,0,.2,0a5.375,5.375,0,0,1,5.474,5.274c0,.066,0,.132,0,.2a5.376,5.376,0,0,1-5.275,5.473h-.2m8.757-16.235a2.007,2.007,0,1,0,2.007,2.007h0a2.024,2.024,0,0,0-2.007-2.007" fill="#fff" fill-rule="evenodd"/>
  </g>
</svg>
