<svg xmlns="http://www.w3.org/2000/svg" width="29.331" height="29.297" viewBox="0 0 29.331 29.297">
  <path id="Trazado_10381" data-name="Trazado 10381" d="M-157.206,97.8l-6.121,9.083a.651.651,0,0,0,.976.847l6.022-5.242a.236.236,0,0,1,.392.2v16.375a.244.244,0,0,1-.424.162L-174.59,97.41a3.01,3.01,0,0,0-2.376-1.106h-.651a3.118,3.118,0,0,0-3.093,3.124v23.049a3.125,3.125,0,0,0,3.125,3.124,3.136,3.136,0,0,0,2.669-1.5l6.121-9.083a.651.651,0,0,0-.976-.847l-6.022,5.209a.236.236,0,0,1-.392-.2V102.846a.244.244,0,0,1,.424-.162l18.229,21.811a3.061,3.061,0,0,0,2.377,1.106h.651a3.125,3.125,0,0,0,3.125-3.124V99.428a3.175,3.175,0,0,0-3.158-3.124A3.136,3.136,0,0,0-157.206,97.8Z" transform="translate(180.71 -96.304)" fill="#f7931e"/>
</svg>
