<svg xmlns="http://www.w3.org/2000/svg" width="32.835" height="26.636" viewBox="0 0 32.835 26.636">
  <path id="Trazado_2" data-name="Trazado 2" d="M185.677,6446.262a18.983,18.983,0,0,0,19.152-18.811c0-.115,0-.229,0-.344v-.911a14.822,14.822,0,0,0,3.284-3.466,15.175,15.175,0,0,1-3.832,1.093,7.1,7.1,0,0,0,2.919-3.648,16.722,16.722,0,0,1-4.195,1.641,6.517,6.517,0,0,0-4.925-2.187,6.854,6.854,0,0,0-6.75,6.749,3.559,3.559,0,0,0,.183,1.459,18.857,18.857,0,0,1-13.864-7.114,6.971,6.971,0,0,0-.912,3.466,7.248,7.248,0,0,0,2.919,5.655,6.155,6.155,0,0,1-3.1-.911h0a6.667,6.667,0,0,0,5.473,6.567,5.636,5.636,0,0,1-1.825.183,3.1,3.1,0,0,1-1.276-.183,6.911,6.911,0,0,0,6.384,4.743,13.77,13.77,0,0,1-8.391,2.918,5.07,5.07,0,0,1-1.642-.183,17.221,17.221,0,0,0,10.4,3.284" transform="translate(-175.278 -6419.629)" fill="#fff" fill-rule="evenodd"/>
</svg>
