<svg xmlns="http://www.w3.org/2000/svg" width="32.834" height="26.635" viewBox="0 0 32.834 26.635">
  <path id="Trazado_2" data-name="Trazado 2" d="M1223.114,1648.994a18.982,18.982,0,0,0,19.153-18.81c0-.115,0-.23,0-.344v-.912a14.83,14.83,0,0,0,3.283-3.466,15.114,15.114,0,0,1-3.831,1.094,7.1,7.1,0,0,0,2.918-3.649,16.739,16.739,0,0,1-4.195,1.642,6.512,6.512,0,0,0-4.925-2.187,6.853,6.853,0,0,0-6.749,6.749,3.543,3.543,0,0,0,.182,1.459,18.856,18.856,0,0,1-13.864-7.115,6.983,6.983,0,0,0-.911,3.466,7.246,7.246,0,0,0,2.918,5.656,6.161,6.161,0,0,1-3.1-.911h0a6.669,6.669,0,0,0,5.473,6.567,5.615,5.615,0,0,1-1.824.182,3.105,3.105,0,0,1-1.277-.182,6.91,6.91,0,0,0,6.385,4.742,13.78,13.78,0,0,1-8.392,2.919,5.085,5.085,0,0,1-1.641-.183,17.219,17.219,0,0,0,10.4,3.283" transform="translate(-1212.716 -1622.362)" fill="#f7931e" fill-rule="evenodd"/>
</svg>
