<svg xmlns="http://www.w3.org/2000/svg" viewBox="0 0 176.91 113.55"><defs><style>.cls-1{fill:#fff;}</style></defs><g id="Capa_2" data-name="Capa 2"><g id="Capa_2-2" data-name="Capa 2"><polygon class="cls-1" points="62.11 22.24 74.34 54.62 86.17 54.62 94.08 33.72 94.08 0.01 94.04 0.01 80.36 37.11 66.47 0.01 48.83 0.01 48.83 54.62 62.11 54.62 62.11 22.24"/><polygon class="cls-1" points="111.49 33.7 111.56 33.7 126.56 33.7 126.56 22.38 111.56 22.38 111.49 22.38 111.49 12.65 111.56 12.65 128.08 12.65 128.08 0 98.27 0 98.27 0.01 98.27 22.64 98.27 54.62 111.49 54.62 111.49 33.7"/><polygon class="cls-1" points="12.34 85.07 6.91 70.59 0 70.59 0 91.91 5.2 91.91 5.2 79.27 9.98 91.91 14.62 91.91 19.35 79.42 19.35 91.91 24.55 91.91 24.55 70.59 17.69 70.59 12.34 85.07"/><path class="cls-1" d="M35.47,92.25c4.86,0,7.86-3.32,7.86-8.48V70.56H38.1V84c0,1.78-.62,3.23-2.63,3.23S32.83,85.74,32.83,84V70.56H27.6V83.77C27.6,88.9,30.6,92.25,35.47,92.25Z"/><path class="cls-1" d="M60.51,85.54c0-4.62-3.08-5.7-6.7-6.92-1.58-.55-2.9-1-2.9-2.31a1.72,1.72,0,0,1,1.91-1.65A2.07,2.07,0,0,1,55,76.88l4.75,0c0-4.07-2.74-6.76-6.88-6.76C49,70.15,46,72.58,46,76.24c0,3.49,2.09,5.12,5.79,6.42,2.28.8,3.47,1.37,3.47,2.8a2.12,2.12,0,0,1-2.36,2.1A2.46,2.46,0,0,1,50.34,85H45.25c0,4.32,3.1,7.28,7.68,7.28C57.22,92.25,60.51,89.76,60.51,85.54Z"/><rect class="cls-1" x="62.68" y="70.61" width="5.23" height="21.3"/><path class="cls-1" d="M81.28,75.38a5.79,5.79,0,0,1,5.21,3.13H92a11,11,0,1,0,.06,5.29H86.56a5.76,5.76,0,0,1-5.28,3.29,5.86,5.86,0,0,1,0-11.71Z"/><polygon class="cls-1" points="111.25 75.48 111.25 70.54 99.56 70.54 99.56 91.91 104.76 91.91 104.76 83.72 110.66 83.72 110.66 79.29 104.76 79.29 104.76 75.48 111.25 75.48"/><polygon class="cls-1" points="125.97 86.96 119.01 86.96 119.01 83.08 125.38 83.08 125.38 79.19 119.01 79.19 119.01 75.51 125.97 75.51 125.97 70.61 113.81 70.61 113.81 91.91 125.97 91.91 125.97 86.96"/><path class="cls-1" d="M134.51,70.59l-7.76,21.32h5.45l.88-2.64h8.23l.88,2.64h5.33l-7.63-21.32Zm-.08,14.61,2.77-8.42L140,85.2Z"/><path class="cls-1" d="M156.06,78.62c-1.58-.55-2.9-1-2.9-2.31a1.72,1.72,0,0,1,1.91-1.65,2.06,2.06,0,0,1,2.12,2.22l4.76,0c0-4.07-2.74-6.76-6.88-6.76-3.85,0-6.83,2.43-6.83,6.09,0,3.49,2.1,5.12,5.8,6.42,2.27.8,3.46,1.37,3.46,2.8a2.11,2.11,0,0,1-2.35,2.1A2.46,2.46,0,0,1,152.59,85h-5.1c0,4.32,3.11,7.28,7.69,7.28,4.29,0,7.58-2.49,7.58-6.71C162.76,80.92,159.68,79.84,156.06,78.62Z"/><polygon class="cls-1" points="163.15 70.54 163.15 75.48 167.41 75.48 167.41 91.91 172.61 91.91 172.61 75.48 176.91 75.48 176.91 70.54 163.15 70.54"/><path class="cls-1" d="M40,100.61l-2.62,5.85c-.37.89-.66,1.67-1,2.5h0c0-.64,0-1.48,0-2.74l-.2-5.61H34.87l-2.7,5.91c-.53,1.2-.77,1.83-1,2.46h0c0-.61,0-1.27,0-2.53l-.21-5.84h-1.2l.48,9.74h1.28l2.71-5.78a27.07,27.07,0,0,0,1-2.56h0a23.76,23.76,0,0,0,0,2.8l.25,5.54h1.26l4.51-9.74Z"/><path class="cls-1" d="M45.57,103.21a3,3,0,0,0-2.49,1.39h0l.87-4.51h-1.2l-1.94,10.26H42l.65-3.5c.29-1.56,1.45-2.65,2.37-2.65a1,1,0,0,1,1.09,1.15,4.79,4.79,0,0,1-.1,1l-.76,4h1.19l.78-4.09a6.64,6.64,0,0,0,.11-1.18A1.68,1.68,0,0,0,45.57,103.21Z"/><path class="cls-1" d="M52.35,103.21c-2.25,0-3.81,2.38-3.81,4.48a2.52,2.52,0,0,0,2.66,2.81,5,5,0,0,0,2.3-.55l-.17-.9a3.79,3.79,0,0,1-1.88.48,1.57,1.57,0,0,1-1.55-.94,2.81,2.81,0,0,1-.14-1.32c2.57,0,4.64-.44,4.64-2.27A1.81,1.81,0,0,0,52.35,103.21Zm-2.46,3.13a2.7,2.7,0,0,1,2.29-2.2c.62,0,1.06.31,1.06.89C53.24,106.11,51.77,106.37,49.89,106.34Z"/><path class="cls-1" d="M59.25,103.21a2.52,2.52,0,0,0-2.14,1.67h0c.08-.54.14-1,.19-1.52h-1c-.08.65-.18,1.58-.35,2.49l-.86,4.5h1.2l.57-3.08c.31-1.62,1.23-2.88,2.26-2.88l.33,0,.23-1.18A1.83,1.83,0,0,0,59.25,103.21Z"/><path class="cls-1" d="M63.38,103.21c-2.25,0-3.81,2.38-3.81,4.48a2.52,2.52,0,0,0,2.66,2.81,5,5,0,0,0,2.3-.55l-.17-.9a3.79,3.79,0,0,1-1.88.48,1.57,1.57,0,0,1-1.55-.94,3,3,0,0,1-.15-1.32c2.58,0,4.65-.44,4.65-2.27A1.82,1.82,0,0,0,63.38,103.21Zm-2.46,3.13a2.7,2.7,0,0,1,2.29-2.2c.62,0,1.06.31,1.06.89C64.27,106.11,62.8,106.37,60.92,106.34Z"/><polygon class="cls-1" points="68.7 110.35 73.87 110.35 74.07 109.32 70.09 109.32 70.76 105.77 74.29 105.77 74.49 104.76 70.95 104.76 71.55 101.64 75.3 101.64 75.5 100.61 70.55 100.61 68.7 110.35"/><path class="cls-1" d="M80.6,103.36l-2.12,4.07c-.41.8-.59,1.26-.75,1.63h0c0-.39-.12-.92-.22-1.72l-.6-4H75.65l1.21,7H78l3.88-7Z"/><path class="cls-1" d="M85.64,103.21c-2.25,0-3.81,2.38-3.81,4.48a2.51,2.51,0,0,0,2.65,2.81,5,5,0,0,0,2.31-.55l-.18-.9a3.76,3.76,0,0,1-1.88.48,1.58,1.58,0,0,1-1.55-.94,3,3,0,0,1-.14-1.32c2.58,0,4.64-.44,4.64-2.27A1.81,1.81,0,0,0,85.64,103.21Zm-2.46,3.13a2.7,2.7,0,0,1,2.29-2.2c.62,0,1.06.31,1.06.89C86.53,106.11,85.06,106.37,83.18,106.34Z"/><path class="cls-1" d="M92.65,104.41l.23-1.18a1.88,1.88,0,0,0-.34,0,2.52,2.52,0,0,0-2.14,1.67h0c.08-.54.13-1,.19-1.52h-1c-.08.65-.19,1.58-.36,2.49l-.85,4.5h1.19l.58-3.08c.3-1.62,1.22-2.88,2.26-2.88Z"/><path class="cls-1" d="M98.25,103.36l-1.78,3.89c-.35.77-.56,1.26-.74,1.71h0c-.07-.52-.16-1-.31-1.84l-.69-3.76H93.44l1.4,6.56a.44.44,0,0,1,0,.32,5.39,5.39,0,0,1-1.35,1.61,4.28,4.28,0,0,1-1.28.67l.29,1a4.4,4.4,0,0,0,2-1.2,13.1,13.1,0,0,0,2.4-3.68l2.62-5.31Z"/><path class="cls-1" d="M103.37,103.21c-2.27,0-3.87,2.12-3.87,4.43a2.66,2.66,0,0,0,2.72,2.87c2.35,0,3.88-2.24,3.88-4.4A2.66,2.66,0,0,0,103.37,103.21Zm-1,6.35c-1,0-1.66-.83-1.66-2,0-1.6,1-3.44,2.51-3.44,1.25,0,1.62,1.14,1.62,2C104.86,107.73,103.79,109.56,102.39,109.56Z"/><path class="cls-1" d="M111.7,103.21a3,3,0,0,0-2.58,1.53h0l.18-1.38h-1.08c-.08.58-.17,1.26-.33,2l-.93,4.95h1.19l.63-3.4c.32-1.72,1.53-2.75,2.39-2.75s1.09.52,1.09,1.22a6.23,6.23,0,0,1-.09.89l-.77,4h1.2l.77-4.08a6.76,6.76,0,0,0,.13-1.13A1.71,1.71,0,0,0,111.7,103.21Z"/><path class="cls-1" d="M118.5,103.21c-2.24,0-3.8,2.38-3.8,4.48a2.51,2.51,0,0,0,2.65,2.81,5,5,0,0,0,2.31-.55l-.18-.9a3.76,3.76,0,0,1-1.88.48,1.58,1.58,0,0,1-1.55-.94,2.81,2.81,0,0,1-.14-1.32c2.58,0,4.64-.44,4.64-2.27A1.81,1.81,0,0,0,118.5,103.21Zm-2.45,3.13a2.7,2.7,0,0,1,2.29-2.2c.62,0,1.06.31,1.06.89C119.4,106.11,117.93,106.37,116.05,106.34Z"/><polygon class="cls-1" points="130.42 101.64 130.63 100.61 125.67 100.61 123.82 110.35 129 110.35 129.19 109.32 125.22 109.32 125.89 105.77 129.42 105.77 129.62 104.76 126.08 104.76 126.67 101.64 130.42 101.64"/><path class="cls-1" d="M130.53,108.2a2.07,2.07,0,0,0,2,2.31,3.05,3.05,0,0,0,2.7-2h0a17.36,17.36,0,0,0-.16,1.81h1.12a15.23,15.23,0,0,1,.29-3.24l.71-3.64a6.88,6.88,0,0,0-1.88-.26A4.87,4.87,0,0,0,130.53,108.2Zm4.95-1.83c-.35,1.85-1.52,3.15-2.52,3.15s-1.19-.76-1.19-1.54c0-1.94,1.48-3.82,3.29-3.82a2.59,2.59,0,0,1,.83.1Z"/><path class="cls-1" d="M139.82,108.81a5.53,5.53,0,0,1,.14-1.11l.64-3.4h1.67l.19-.94h-1.67l.36-1.87-1.24.3-.3,1.57h-1l-.18.94h1l-.68,3.54a6.57,6.57,0,0,0-.16,1.31,1.3,1.3,0,0,0,1.47,1.35,3,3,0,0,0,.93-.12l0-.95a2.23,2.23,0,0,1-.56.06A.6.6,0,0,1,139.82,108.81Z"/><path class="cls-1" d="M143.2,105.36a2.08,2.08,0,0,0,1.26,1.78c.72.4,1,.74,1,1.29a1.2,1.2,0,0,1-1.32,1.14,3.13,3.13,0,0,1-1.5-.44l-.35.89a3.14,3.14,0,0,0,1.74.48,2.38,2.38,0,0,0,2.66-2.3,2.17,2.17,0,0,0-1.3-1.84c-.62-.35-1-.66-1-1.17a1.13,1.13,0,0,1,1.25-1,2.47,2.47,0,0,1,1.2.32l.33-.91a2.93,2.93,0,0,0-1.45-.34A2.29,2.29,0,0,0,143.2,105.36Z"/></g></g></svg>